<?xml version="1.0" encoding="utf-8"?>
<!-- Generator: Adobe Illustrator 18.1.1, SVG Export Plug-In . SVG Version: 6.00 Build 0)  -->
<svg version="1.1" id="Layer_1" xmlns:sketch="http://www.bohemiancoding.com/sketch/ns"
	 xmlns="http://www.w3.org/2000/svg" xmlns:xlink="http://www.w3.org/1999/xlink" x="0px" y="0px" viewBox="-253 345 104 104"
	 enable-background="new -253 345 104 104" xml:space="preserve">
<title>Shape-11</title>
<desc>Created with Sketch.</desc>
<g id="Page-1" sketch:type="MSPage">
	<path id="Shape-11" sketch:type="MSShapeGroup" fill="#FFFFFF" d="M-180.4,406.7c1-5.6,0.9-10.9,0.9-15l-0.2-9.7
		c0,0-0.1,3.7-0.2,9.6c-0.1,4.1-0.2,9.5-1.3,15.1c-1.2,0.9-3,2.4-4,5.8c0,0.1,0,0.2-0.1,0.3c1.6-0.1,3.1-0.3,4.6-0.5
		C-180.2,409.9-180.4,408-180.4,406.7 M-219.4,404.6c-5.4-3.5-9-5.2-8.9-5.2c0,0,3.4,1.9,8.7,5.6c3.1,2.1,6.8,4.9,11.1,7.8
		c0.5,0.1,1.1,0.1,1.6,0.2C-211.8,409.8-216,406.8-219.4,404.6 M-188,412.9c-0.7-1.1-1.4-1.8-2.1-2.4c-0.2-0.6-0.5-1.2-0.7-1.8
		c1.5,1.5,2.9,2.3,3.4,2.7v-0.3c0.2,0.6,0.4,1.2,0.5,1.9c0.3,0,0.6,0,0.8-0.1c-0.5-1.8-1.1-3.5-1.7-5.2c-0.2-0.9-0.6-1.8-1.2-2.9
		c-0.6-1.3-1.1-2.5-1.7-3.7c0.7,0.5,1.2,0.8,1.5,1c-0.1-0.9,0.1-3.7-2.1-6.7c-1.3-1.8-2.7-2.6-3.8-3.1l-3.5-6.8c0,0,1.1,2.5,3.1,6.7
		c-0.3-0.1-0.6-0.2-0.8-0.2c-2.7-3.9-4.8-7.7-6.6-10.5c-2.6-4-4.4-6.3-4.4-6.3c0,0,1.7,2.4,4.2,6.5c1.7,2.8,3.7,6.6,6.3,10.5
		c0.5,1.2,0.9,3.1,2.7,5.6c0.8,1.2,1.7,2,2.5,2.7c0.3,0.7,0.6,1.4,0.9,2.1c-1.5-1.5-3-2-4.1-2.3c-0.3-0.5-0.6-0.9-0.9-1.4
		c-1.7-3.7-3.6-7-5.2-9.8c-3.4-6-5.7-9.7-5.7-9.7l5.3,9.9c0.4,0.7,0.8,1.5,1.2,2.4c-0.6-1-1.1-1.9-1.6-2.8c-2.7-4.3-4.6-6.8-4.6-6.8
		c0,0,1.8,2.6,4.3,7c1.5,2.6,3.2,5.9,5.3,9.5c0.9,2.1,1.8,4.3,2.6,6.7c-0.2,0.5-0.5,1.1-0.7,1.8c-2.4-4.1-4.3-7.8-6-10.7
		c-0.6-1-1.1-1.8-1.6-2.6c-2.2-4.5-4.6-8.3-6.6-11.4c-3.5-5.4-5.7-8.7-5.7-8.7l5.4,8.9c2.3,3.8,5.3,8.7,7.7,14.4
		c-0.5,1.5-1.3,3.9-0.2,7.5c1.4,4.5,4.1,6.5,4.9,7.4c0.1-1,0.9-3.7-0.1-7.6c0.6,1.2,1.3,2.4,2,3.6c-0.3,1.4-0.4,3.1,0.2,5.3
		c2.2,0,4.4-0.1,6.6-0.2C-188,413.1-188,413-188,412.9 M-223.6,406.6c0,0,2.8,1.6,7.3,4.8c0.3,0.1,0.6,0.1,0.9,0.2
		C-220.4,408.3-223.6,406.6-223.6,406.6 M-198.6,383.9c0.5,1.1,0.9,2.9,2.6,5.2c1.9,2.6,4.1,3.5,4.8,4c-0.1-0.9,0-3.4-2.1-6.2
		c-1.7-2.3-3.6-2.8-4.8-3.1c-2.6-3.6-4.6-7.1-6.3-9.7c-2.5-3.7-4.2-5.8-4.2-5.8c0,0,1.6,2.2,4,6C-203,376.9-201.1,380.3-198.6,383.9
		 M-196,364.8c-0.5,0.8-1.4,2.2-1.2,4.7c0.2,3,1.5,4.6,1.9,5.3c0.2-0.6,1.2-2.4,1.1-5.2c-0.1-2.5-0.9-3.9-1.3-4.9
		c-0.6-3.8-1.7-7.2-2.5-9.8l-2-6.2c0,0,0.6,2.4,1.8,6.2C-197.6,357.5-196.5,360.9-196,364.8 M-198.2,380.4c1.8,2.3,3.9,3.2,4.5,3.6
		c-0.1-0.8,0-3.1-2.1-5.7c-1.6-2.1-3.4-2.6-4.4-2.8c-2.4-3.3-4.4-6.5-6-8.9c-2.3-3.4-4-5.3-4-5.4c0,0,1.5,2,3.7,5.5
		c1.5,2.4,3.3,5.6,5.7,8.9C-200.3,376.7-199.8,378.3-198.2,380.4 M-201.6,364.6c0.8,2,2.2,2.7,2.8,3.3c0.1-0.7,1.1-2.3,0.1-4.5
		c-0.8-1.9-2.2-2.7-2.9-3c-3.4-7.8-7-13.4-7.8-14.8l-0.2-0.3c-0.1,0,3.8,6.5,7.6,15.5C-202.1,361.7-202.3,363.1-201.6,364.6
		 M-203.1,367.4c0.4,1,0.8,2.4,2.4,4.3c1.7,2.2,3.6,2.9,4.2,3.3c-0.1-0.7-0.1-2.8-2-5.2c-1.6-1.9-3.1-2.3-4.1-2.6
		c-2.3-3-4.1-5.9-5.6-8.1c-2.2-3.1-3.7-4.9-3.7-4.9c0,0,1.4,1.8,3.5,5C-207,361.5-205.3,364.4-203.1,367.4 M-186.1,411.4
		c0.5-0.8,2.6-2.6,3.4-6.4c0.7-3.3,0.3-5.5,0.1-7c0.6-5.3,0.3-10.2,0.1-14c-0.4-5.5-0.7-9-0.7-9l0.3,9c0.1,3.9,0.3,8.8-0.4,14.1
		c-1,0.9-2.7,2.4-3.4,5.7C-187.5,407.7-186.4,410.4-186.1,411.4 M-192.1,372.8c-0.7,0.9-1.7,2.3-1.7,5c0,3.3,1.3,5.1,1.7,5.9
		c0.3-0.7,1.5-2.5,1.6-5.6c0-2.7-0.7-4.3-1-5.5c-0.3-4.2-1.3-8-2-10.9l-1.7-6.9l1.5,6.9C-193.2,364.8-192.4,368.6-192.1,372.8
		 M-188.7,381.1c-0.8,0.9-2,2.4-2.2,5.2c-0.3,3.5,1,5.6,1.3,6.5c0.4-0.7,1.9-2.6,2.1-5.9c0.2-2.9-0.4-4.8-0.7-6
		c-0.1-4.6-0.8-8.7-1.4-11.9l-1.4-7.6l1.1,7.6C-189.4,372.3-188.7,376.5-188.7,381.1 M-185.8,389.5c-0.9,0.9-2.3,2.4-2.8,5.5
		c-0.6,3.8,0.7,6.1,1,7.1c0.4-0.7,2.2-2.6,2.7-6.2c0.5-3.2-0.1-5.1-0.3-6.5c0.3-5-0.3-9.5-0.7-13c-0.6-5.1-1.1-8.3-1.1-8.3l0.7,8.3
		C-185.9,379.9-185.5,384.5-185.8,389.5 M-217.6,381.7c-0.3,1.3-0.7,3.4,0.8,6.4c1.7,3.7,4.3,5.1,5.1,5.7c-0.1-0.9,0.4-3.6-1.2-7
		c-1.5-3-3.1-4.5-4.1-5.6c-2.7-4.5-5.8-8.3-8.2-11.2l-5.7-6.8l5.5,7C-223.3,373.3-220.3,377.1-217.6,381.7 M-233.1,381.3
		c1,0.9,2.3,2.3,5.1,3.6c3.1,1.5,5.7,1.4,6.5,1.5c-0.5-0.7-1.7-3.1-5.1-4.8c-2.8-1.3-4.8-1-6.1-0.7c-4.2-2.2-7.9-4.5-10.8-6.2
		c-4.2-2.4-6.9-3.6-6.9-3.6c0,0,2.7,1.3,6.7,3.9C-240.8,376.6-237.2,379-233.1,381.3 M-232.9,377.4c2,1.8,3.9,1.9,5,2.3
		c-0.2-0.9,0-3.1-2.3-5.1c-2-1.7-4-1.8-5-1.9c-8.1-6.9-15.3-11.4-16.9-12.5l-0.4-0.2c-0.1,0.1,7.9,5.3,17.1,13.4
		C-235.1,374.4-234.5,376-232.9,377.4 M-225.9,389.3c1.1,0.9,2.5,2.5,5.5,4c3.4,1.7,6.1,1.6,7.1,1.7c-0.6-0.8-1.8-3.4-5.4-5.3
		c-3-1.5-5.2-1.1-6.6-0.9c-4.6-2.5-8.5-5-11.7-6.8c-4.5-2.6-7.4-3.9-7.4-4c0,0,2.8,1.5,7.3,4.2
		C-234.2,384.2-230.4,386.8-225.9,389.3 M-219,397.5c1.1,1,2.6,2.7,5.8,4.4c3.6,1.9,6.6,1.8,7.6,2c-0.6-0.9-1.8-3.8-5.8-5.9
		c-3.2-1.7-5.6-1.3-7.1-1.1c-4.9-2.7-9.1-5.5-12.5-7.6c-4.8-2.9-8-4.3-8-4.4c0,0,3,1.6,7.8,4.7C-227.8,391.8-223.8,394.7-219,397.5
		 M-209.3,389.2c-0.4,1.4-1,3.7,0.3,7c1.6,4.1,4.2,5.8,5.1,6.5c0-1,0.7-3.8-0.8-7.7c-1.3-3.4-3.1-5.1-4-6.4
		c-2.6-5.1-5.7-9.3-8.1-12.6l-5.8-7.8l5.4,7.9C-214.8,379.7-211.8,384-209.3,389.2 M-212.3,405.7c1.2,1.1,2.7,3,6.1,4.9
		c3.8,2.1,7,2.1,8.1,2.4c-0.6-1-1.8-4.1-6-6.5c-3.4-1.9-6-1.5-7.6-1.3c-5.2-3-9.7-6.1-13.3-8.3c-5.1-3.2-8.5-4.8-8.5-4.8
		c0,0,3.2,1.8,8.3,5.1C-221.8,399.5-217.5,402.7-212.3,405.7 M-226.5,374.7c-0.2,1.2-0.4,3.2,1.1,5.8c1.9,3.2,4.3,4.3,5,4.9
		c-0.1-0.8,0.1-3.3-1.7-6.3c-1.5-2.7-3.2-3.9-4.1-4.9c-2.8-4-5.9-7.2-8.2-9.7l-5.6-5.9c0,0,2,2.3,5.4,6.1
		C-232.2,367.4-229.2,370.7-226.5,374.7 M-149.5,405.7L-149.5,405.7c-0.3,7.6-2.9,15.8-6.8,23.4c0,0-9.5,19.2-39.3,19.2
		c-29.8,0-39.5-19-39.5-19c-4-7.6-6.4-15.8-6.7-23.6h0c0-0.2,0-0.4,0-0.6c0-3.7,2.3-7.1,6.2-10l4.2,2.7c-2.6,1.7-4.1,3.6-4.1,5.7
		c0,7.2,17.9,13,39.9,13c22,0,39.9-5.8,39.9-13c0-5-8.6-9.3-21.1-11.5l0.1-5.2c16.1,3.2,27.3,10.2,27.3,18.4
		C-149.5,405.3-149.5,405.5-149.5,405.7"/>
</g>
</svg>
