<?xml version="1.0" encoding="utf-8"?>
<!-- Generator: Adobe Illustrator 18.1.1, SVG Export Plug-In . SVG Version: 6.00 Build 0)  -->
<svg version="1.1" id="Layer_1" xmlns:sketch="http://www.bohemiancoding.com/sketch/ns"
	 xmlns="http://www.w3.org/2000/svg" xmlns:xlink="http://www.w3.org/1999/xlink" x="0px" y="0px" viewBox="-261 352 89 89"
	 enable-background="new -261 352 89 89" xml:space="preserve">
<title>Shape-8</title>
<desc>Created with Sketch.</desc>
<g id="Page-1" sketch:type="MSPage">
	<path id="Shape-8" sketch:type="MSShapeGroup" fill="#FFFFFF" d="M-211.4,412c-1.1,0.7-2.2,1.4-3.3,2l0.2-11.9
		c5.7,2.3,5.3,5.3,5.4,6.5C-208.9,409.5-209.7,410.9-211.4,412 M-225,408.6c0.1-1.3-0.4-4.4,5.9-6.7l0.1,12.4
		c-1.2-0.8-2.5-1.5-3.8-2.3C-224.4,410.9-225.2,409.5-225,408.6 M-199.9,358.5c-2.8-2.3-4.7-1.7-7.5,3.2c-1.9,3.3-4.8,3.7-6.6,3.6
		l0-0.6c2.1-1,3.6-3.1,3.6-5.6c0-3.5-2.8-6.3-6.3-6.3c-3.5,0-6.3,2.8-6.3,6.3c0,2.5,1.5,4.5,3.6,5.6l0,0.7c-1.8,0.1-4.7-0.3-6.6-3.6
		c-2.8-4.9-4.7-5.5-7.5-3.2c-2.8,2.3-13.9,15.3-27.4,14.1c0,0,2.7,6,10,4.7c0,0,3.9,4,10.2,1.2c0,0,3.3,2.9,8.5,0.3
		c0,0,3.9,2.9,8,0.4c0,0,2.3,1.7,4.9,1.2l0.2,15.1c-0.3-0.1-0.5-0.1-0.8-0.2c0,0-4.5-1-9.3-2.3c-4.6-1.2-9.6-3.1-10.4-4.1
		c0.1-0.1,0.2-0.1,0.3-0.2c0.4-0.2,1.1-0.4,1.9-0.6c1.7-0.3,4-0.5,6.3-0.6c4.6-0.2,5.4,0,5.5,0.1c0-0.1,2.6,0.3,3.4-2.3
		c0,0,0-0.1,0-0.2c-0.2-1.8-1.6-1.9-2.7-2.1c-1.9-0.2-0.9-0.2-3.5-0.1c-4.2,0.3-17.1-0.7-18.7,6c0,0.2,0,0.3,0,0.5
		c0.5,5.8,12.8,8.4,21.6,10.1c-3,2-4.6,4.7-5.3,8.1c-0.3,3.7,2.6,7.1,9.4,11c-5.2,3.6-8.6,7-8.3,11.1c0.5,3.3,3.5,7.8,9.4,10.6
		c0,0,0,0,0,0h0c0,0-4.1-6.2-4.4-9.6c-0.3-2,0.9-4.9,5.9-8.4l0.1,12.4h0c0,1.1,0.9,1.9,1.9,1.9c1,0,1.9-0.8,1.9-1.9h0l0.2-12.1
		c4.6,3.4,5.7,6.2,5.4,8.1c-0.3,3.4-4.4,9.6-4.4,9.6h0c0,0,0,0,0,0c5.9-2.8,8.9-7.3,9.3-10.6c0.3-4.1-3.1-7.5-8.3-11.1
		c6.8-3.9,9.7-7.3,9.4-11c-0.6-3.4-2.2-6.1-5.3-8.1c8.9-1.7,21.1-4.3,21.6-10.1c0-0.2,0-0.3,0-0.5c-1.6-6.7-14.5-5.7-18.7-6
		c-2.5,0-1.6-0.1-3.5,0.1c-1.2,0.2-2.6,0.3-2.7,2.1c0,0.1,0,0.2,0,0.2c0.7,2.6,3.4,2.2,3.4,2.3c0.1,0,0.9-0.2,5.5-0.1
		c2.3,0.1,4.6,0.3,6.3,0.6c0.8,0.2,1.5,0.4,1.9,0.6c0.1,0.1,0.2,0.1,0.3,0.2c-0.7,1-5.8,2.9-10.4,4.1c-4.8,1.3-9.3,2.3-9.3,2.3
		c-0.1,0-0.2,0-0.3,0.1l0.2-14.9c2.6,0.4,5-1.2,5-1.2c4.1,2.5,8-0.4,8-0.4c5.2,2.7,8.5-0.3,8.5-0.3c6.3,2.8,10.2-1.2,10.2-1.2
		c7.3,1.3,10-4.7,10-4.7C-186,373.9-197.1,360.8-199.9,358.5"/>
</g>
</svg>
