<?xml version="1.0" encoding="utf-8"?>
<!-- Generator: Adobe Illustrator 18.1.1, SVG Export Plug-In . SVG Version: 6.00 Build 0)  -->
<svg version="1.1" id="Layer_1" xmlns:sketch="http://www.bohemiancoding.com/sketch/ns"
	 xmlns="http://www.w3.org/2000/svg" xmlns:xlink="http://www.w3.org/1999/xlink" x="0px" y="0px" viewBox="-273 347 64 100"
	 enable-background="new -273 347 64 100" xml:space="preserve">
<title>Shape-9</title>
<desc>Created with Sketch.</desc>
<g id="Page-1" sketch:type="MSPage">
	<path id="Shape-9" sketch:type="MSShapeGroup" fill="#FFFFFF" d="M-229.7,378.8c0-6.1-5-11.1-11.1-11.1c-6.1,0-11.1,5-11.1,11.1
		c0,1-0.8,1.7-1.7,1.7c-1,0-1.7-0.8-1.7-1.7c0-8.1,6.5-14.6,14.6-14.6c8.1,0,14.6,6.5,14.6,14.6c0,1-0.8,1.7-1.7,1.7
		C-228.9,380.6-229.7,379.8-229.7,378.8L-229.7,378.8L-229.7,378.8z M-221.8,378.8c0-10.5-8.5-19-19-19c-10.5,0-19,8.5-19,19
		c0,1-0.8,1.7-1.7,1.7c-1,0-1.7-0.8-1.7-1.7c0-12.4,10.1-22.4,22.5-22.5c12.4,0,22.5,10.1,22.5,22.5c0,1-0.8,1.7-1.7,1.7
		C-221,380.6-221.8,379.8-221.8,378.8L-221.8,378.8L-221.8,378.8z M-212.8,378.8c0-15.5-12.5-28-28-28c-15.5,0-28,12.5-28,28
		c0,1-0.8,1.7-1.7,1.7c-1,0-1.7-0.8-1.7-1.7c0-17.4,14.1-31.5,31.5-31.5c17.4,0,31.5,14.1,31.5,31.5c0,1-0.8,1.7-1.7,1.7
		C-212,380.6-212.8,379.8-212.8,378.8L-212.8,378.8L-212.8,378.8z M-241.8,418.4c0,1.6-1.3,2.9-2.9,2.9H-259c-1.6,0-2.9-1.3-2.9-2.9
		v-16.9c0-1.6,1.3-2.9,2.9-2.9h14.4c1.6,0,2.9,1.3,2.9,2.9V418.4L-241.8,418.4z M-239.6,392.8v-10.2c0.8-0.6,1.3-1.5,1.3-2.5
		c0-1.7-1.4-3.1-3.1-3.1c-1.7,0-3.1,1.4-3.1,3.1c0,1,0.5,2,1.3,2.5v10.2h-19.8c-1.6,0-2.9,1.3-2.9,2.9v47.9c0,1.6,1.3,2.9,2.9,2.9
		h22.6c1.6,0,2.9-1.3,2.9-2.9v-47.9C-237.4,394.3-238.4,393.1-239.6,392.8L-239.6,392.8L-239.6,392.8z"/>
</g>
</svg>
