<?xml version="1.0" encoding="utf-8"?>
<!-- Generator: Adobe Illustrator 18.1.1, SVG Export Plug-In . SVG Version: 6.00 Build 0)  -->
<svg version="1.1" id="Layer_1" xmlns:sketch="http://www.bohemiancoding.com/sketch/ns"
	 xmlns="http://www.w3.org/2000/svg" xmlns:xlink="http://www.w3.org/1999/xlink" x="0px" y="0px" viewBox="-252 354 106 86"
	 enable-background="new -252 354 106 86" xml:space="preserve">
<title>Shape-4</title>
<desc>Created with Sketch.</desc>
<g id="Page-1" sketch:type="MSPage">
	<path id="Shape-4" sketch:type="MSShapeGroup" fill="#FFFFFF" d="M-147.4,392.8c1.5-2.1,0.9-5-1.2-6.5l-43-29.9
		c-4.4-3.1-11.1-3.1-15.5,0l-43,29.9c-2.1,1.5-2.6,4.4-1.2,6.5c1.5,2.1,4.4,2.6,6.5,1.2l43-29.9c1.2-0.8,3.7-0.8,4.9,0l43,29.9
		c0.8,0.6,1.7,0.8,2.6,0.8C-149.8,394.8-148.3,394.1-147.4,392.8L-147.4,392.8L-147.4,392.8z M-199.3,429.4c0,0,1.3,9.3,1.3,9.3
		c0.2,0.5,0.6,0.8,1.1,0.8c0.5,0,1-0.4,1.1-0.9c0,0,0-0.6,0-0.7l-0.5-11.4l0.2-3.9c0.2-1.3,0.2-0.9,1.7-1.8c1.6-0.9,4.2-5,4.3-5.2
		c0.1-0.2,0.4-0.6,0.4-0.8c0.1-0.4-0.2-0.8-0.6-0.9c-0.3,0-0.6,0.1-0.8,0.3c-0.2,0.2-3.2,4.3-5.5,4.7c-0.5-0.1-1.1-0.3-2.5-0.3h-0.6
		c-1.4,0-2,0.3-2.5,0.3c-2.3-0.4-5.3-4.4-5.5-4.7c-0.2-0.2-0.5-0.4-0.8-0.3c-0.4,0.1-0.7,0.5-0.6,0.9c0,0.2,0.3,0.6,0.4,0.8
		c0.1,0.2,2.8,4.3,4.3,5.2c1.5,0.9,1.6,0.5,1.7,1.8l0.2,3.9l-0.5,11.4c0,0.1,0,0.6,0,0.7c0.2,0.5,0.6,0.9,1.1,0.9
		c0.5,0,1-0.3,1.1-0.8C-200.6,438.7-199.3,429.4-199.3,429.4L-199.3,429.4L-199.3,429.4z M-199.3,411.8c-1.7,0-3,1.3-3,3
		c0,1.6,1.3,3,3,3c1.6,0,3-1.3,3-3C-196.3,413.2-197.7,411.8-199.3,411.8L-199.3,411.8L-199.3,411.8z M-174.7,410.9l0.3-10.6
		l5.9,13.1c0.2,0.6,0.9,0.9,1.5,0.6c0.6-0.2,0.9-0.9,0.6-1.5c0,0-4.2-13.1-5.4-15.5c-1.2-2.4-3-3.9-7.6-3.9h-0.9
		c-4.5,0-6.4,1.5-7.6,3.9c-1.2,2.4-5.4,15.5-5.4,15.5c-0.2,0.6,0,1.3,0.6,1.5c0.6,0.2,1.3,0,1.5-0.6l5.9-13.1l0.3,10.6l-0.9,26.5
		c-0.1,1.1,0.7,2,1.8,2c0,0,0.1,0,0.1,0c1,0,1.8-0.8,1.9-1.8l2.2-20.5l2.2,20.5c0.1,1,0.9,1.8,1.9,1.8c0,0,0.1,0,0.1,0
		c1.1-0.1,1.8-1,1.8-2L-174.7,410.9L-174.7,410.9L-174.7,410.9z M-179.7,382.3c-2.7,0-4.9,2.2-4.9,4.9c0,2.7,2.2,4.9,4.9,4.9
		c2.7,0,4.8-2.2,4.8-4.9C-174.8,384.5-177,382.3-179.7,382.3L-179.7,382.3L-179.7,382.3z M-218.4,420.4l1,17.9
		c0,0.6,0.5,1.1,1.1,1.1c0.6,0,1.1-0.5,1.1-1.1l1-17.9h3.2l-3.3-20.1l6.6,13.1c0.2,0.6,0.9,0.9,1.5,0.6c0.6-0.2,0.9-0.9,0.6-1.5
		c0,0-4.8-13.1-6-15.5c-1.2-2.4-2.4-3.9-6.9-3.9h-0.9c-4.5,0-5.7,1.5-6.9,3.9c-1.2,2.4-6,15.5-6,15.5c-0.2,0.6,0,1.3,0.6,1.5
		c0.6,0.3,1.3,0,1.5-0.6l6.6-13.1l-3.3,20.1h3.2l1,17.9c0,0.6,0.5,1.1,1.1,1.1c0.6,0,1.1-0.5,1.1-1.1l1-17.9H-218.4L-218.4,420.4z
		 M-214.1,387.2c0,2.7-2.2,4.9-4.9,4.9c-2.7,0-4.9-2.2-4.9-4.9c0-2.7,2.2-4.9,4.9-4.9C-216.2,382.3-214.1,384.5-214.1,387.2
		L-214.1,387.2L-214.1,387.2z"/>
</g>
</svg>
