<?xml version="1.0" encoding="utf-8"?>
<!-- Generator: Adobe Illustrator 18.1.1, SVG Export Plug-In . SVG Version: 6.00 Build 0)  -->
<svg version="1.1" id="Layer_1" xmlns:sketch="http://www.bohemiancoding.com/sketch/ns"
	 xmlns="http://www.w3.org/2000/svg" xmlns:xlink="http://www.w3.org/1999/xlink" x="0px" y="0px" viewBox="-268 345 75 103"
	 enable-background="new -268 345 75 103" xml:space="preserve">
<title>Shape-10</title>
<desc>Created with Sketch.</desc>
<g id="Page-1" sketch:type="MSPage">
	<path id="Shape-10" sketch:type="MSShapeGroup" fill="#FFFFFF" d="M-219.1,425.2c-2.2,0-4-1.8-4-4c0-2.2,1.8-3.9,4-3.9s4,1.8,4,3.9
		C-215.1,423.4-216.9,425.2-219.1,425.2L-219.1,425.2L-219.1,425.2z M-226.1,417.8H-247c-0.4,0-0.7-0.3-0.7-0.7
		c0-0.4,0.3-0.7,0.7-0.7h20.9c0.4,0,0.7,0.3,0.7,0.7C-225.4,417.5-225.7,417.8-226.1,417.8L-226.1,417.8L-226.1,417.8z
		 M-226.1,421.8H-247c-0.4,0-0.7-0.3-0.7-0.7c0-0.4,0.3-0.7,0.7-0.7h20.9c0.4,0,0.7,0.3,0.7,0.7
		C-225.4,421.5-225.7,421.8-226.1,421.8L-226.1,421.8L-226.1,421.8z M-226.1,425.8H-247c-0.4,0-0.7-0.3-0.7-0.7
		c0-0.4,0.3-0.7,0.7-0.7h20.9c0.4,0,0.7,0.3,0.7,0.7C-225.4,425.5-225.7,425.8-226.1,425.8L-226.1,425.8L-226.1,425.8z
		 M-251.6,407.5c-1.4,0-2.5-1.1-2.5-2.5v-5.6c0-1.4,1-2.6,2.5-3.3c0,0,6.1-2.1,15.1-2.1c9,0,15.1,2.1,15.1,2.1c2,1,2.5,2.7,2.5,4
		v4.9c0,1.4-1.1,2.5-2.5,2.5H-251.6L-251.6,407.5z M-254,425.2c-2.2,0-4-1.8-4-4c0-2.2,1.8-3.9,4-3.9c2.2,0,4,1.8,4,3.9
		C-250.1,423.4-251.9,425.2-254,425.2L-254,425.2L-254,425.2z M-206.8,429.9h-0.9v-2.4c0-4.3-0.3-8.3-0.8-11.9c0-0.1,0-0.1,0-0.2
		v-24h-1.4v-5.6h-1.9v5.6h-1.5v16.4c-0.3-0.2-0.7-0.4-1.1-0.6v-16.8c0-1.4-6.6-5.6-22.3-5.6c-15.8,0-22.2,4.2-22.2,5.6v16.9
		c-3.1,1.7-4.9,4.4-5.7,8.3c-0.5,3.6-0.8,7.6-0.8,11.9v2.4h-0.9c-1,0-1.5,1.3-1.5,4c0,2.6,0.5,3.8,1.5,3.8h6.1v1.2
		c0,1.8,0.1,3.2,0.2,4.4c0.1,1.1,0.3,2.1,0.5,2.8c0.8,1.3,2.3,2,4.4,2c2,0,3.5-0.7,4.3-2c0.5-1.1,0.8-3.2,0.8-6.3v-2h27v2
		c0,3.2,0.3,5.3,0.8,6.3c0.8,1.3,2.2,2,4.3,2c2.1,0,3.6-0.7,4.4-2c0.2-0.7,0.3-1.6,0.5-2.8c0.1-1.1,0.2-2.6,0.2-4.4v-1.2h6.1
		c1,0,1.5-1.3,1.5-3.8C-205.3,431.2-205.8,429.9-206.8,429.9L-206.8,429.9L-206.8,429.9z M-193.8,357c0-0.6-0.5-1-1.5-1.3l-2.1-0.8
		c-2.4-0.9-3.9-1.4-4.5-1.4c-0.1,0-0.5,0.1-1.3,0.3c-0.8,0.2-2,0.6-3.7,1.2c-0.1,0.1-1.1,0.3-2.8,0.6c-1.7,0.3-4.3,0.8-7.7,1.6
		l-34.1-12.1c-0.1-0.1-0.3-0.1-0.8-0.1c-1.2,0-2.3,0.6-3.1,1.7l21.7,13.2l-7.3,1.4l-6.3-5l-1.7,0.3v4l-7.3-2.8l-1.4,0.9l6.5,5.7v0.3
		c0,1,0.7,1.5,2,1.5l3.2,3.9l1.6-0.5l0.5-2.9h17l3.6,2.7v8.6h3.2l6.6-14.1c2.2-0.3,4.5-0.8,7-1.3c2.4-0.5,5-1.1,7.8-1.7
		c0.5-0.2,1-0.5,1.6-0.8s1.1-0.7,1.6-1c0.5-0.4,0.9-0.7,1.2-1.1C-193.9,357.6-193.8,357.3-193.8,357L-193.8,357L-193.8,357z"/>
</g>
</svg>
