<?xml version="1.0" encoding="utf-8"?>
<!-- Generator: Adobe Illustrator 18.1.1, SVG Export Plug-In . SVG Version: 6.00 Build 0)  -->
<svg version="1.1" id="Layer_1" xmlns:sketch="http://www.bohemiancoding.com/sketch/ns"
	 xmlns="http://www.w3.org/2000/svg" xmlns:xlink="http://www.w3.org/1999/xlink" x="0px" y="0px" viewBox="-264 346 83 101"
	 enable-background="new -264 346 83 101" xml:space="preserve">
<title>Shape-2</title>
<desc>Created with Sketch.</desc>
<g id="Page-1" sketch:type="MSPage">
	<path id="Shape-2" sketch:type="MSShapeGroup" fill="#FFFFFF" d="M-199.3,391.1c5.8,2.9,6-12.5,6-12.5
		C-194.7,379.4-205.1,388.1-199.3,391.1 M-199.9,398.4c5.5,2.8,12.7-8,12.7-9.6c0,0-1.5,3.9-7.9,3.6
		C-202.3,392.1-202.3,397.2-199.9,398.4 M-203.9,406.3c5.5,2.8,12.7-8,12.7-9.6c0,0-1.5,3.9-7.9,3.6
		C-206.3,400-206.3,405.1-203.9,406.3 M-208,414.4c5.5,2.8,12.7-8,12.7-9.6c0,0-1.5,3.9-7.9,3.6C-210.4,408.1-210.4,413.2-208,414.4
		 M-203.7,388.1c-4-5-1.7-8.5-1.7-8.5c-1.3,1-5.8,13.1-0.3,15.9C-203.3,396.7-199.2,393.7-203.7,388.1 M-207.7,395.9
		c-4-5-1.7-8.5-1.7-8.5c-1.3,1-5.8,13.2-0.3,15.9C-207.3,404.6-203.2,401.6-207.7,395.9 M-211.8,404c-4-5-1.7-8.5-1.7-8.5
		c-1.3,1-5.8,13.2-0.3,15.9C-211.4,412.7-207.3,409.7-211.8,404 M-214,422l4.2-6.7c0.3-0.7-0.8-0.5-1.9-1.1
		c-1.1-0.5-1.6-1.6-1.9-0.9l-3,7.6C-217,421.6-214.8,423.6-214,422 M-190.5,406.6c-0.6,1-1.3,2-2,2.9c3.7,1.5,6,3.5,6,5.6
		c0,4.9-11.7,9-26.2,9c-14.5,0-26.2-4-26.2-9c0-4.2,8.6-7.8,20.2-8.7c0-1,0-2,0.1-3.1c-14.8,0.7-26,4.5-26,16.1
		c0,13.1,14.1,27.4,31.6,27.4c17.4,0,31.6-14.3,31.6-27.4C-181.5,413.1-185,409.1-190.5,406.6 M-236.6,389.1v6.1
		c-0.6-0.2-1.2-0.7-1.7-1.2c-0.5-0.6-0.9-1.2-1-2l-4.5,0.4c0.3,1.9,1.1,3.4,2.4,4.5c1.2,1.1,2.9,1.7,4.9,1.9v2.7h2.5v-2.7
		c2.3-0.3,4-1,5.3-2.2c1.3-1.2,1.9-2.7,1.9-4.5c0-1.6-0.5-2.9-1.5-3.9c-1-1-2.9-1.8-5.7-2.5v-5.7c1.1,0.4,1.8,1.2,2.1,2.3l4.4-0.5
		c-0.3-1.5-1-2.6-2.1-3.5c-1.1-0.9-2.6-1.4-4.4-1.6v-1.5h-2.5v1.5c-2,0.2-3.6,0.8-4.8,1.9c-1.2,1.1-1.8,2.4-1.8,4
		c0,1.6,0.5,2.9,1.6,4C-240.5,387.7-238.8,388.5-236.6,389.1 M-245,408.8h-8c-8.1,0-9.9-6.8-9.9-6.8c-5.3-23.5,10.9-36.2,10.9-36.2
		h33.7c0,0,6.4,5,9.8,14.6c-2.2,2.6-4.3,5.7-6.1,9.2c-1.6,3.3-2.8,6.6-3.5,9.8C-226.2,399.7-238.9,401.2-245,408.8 M-223.1,346.9
		c-6.5-0.7-8.8,3.3-12.1,3.4c-3.3-0.2-5.5-4.2-12.1-3.4c-6.7,0.7-10.7,6.4-10.7,6.4l8.1,7.6h29.3l8.1-7.6
		C-212.4,353.3-216.4,347.7-223.1,346.9 M-238.8,383c0,0.5,0.2,1,0.6,1.4c0.4,0.5,0.9,0.8,1.7,1.1v-5.1c-0.7,0.2-1.2,0.5-1.6,1
		C-238.6,382-238.8,382.5-238.8,383 M-231.8,391.5c0.5,0.5,0.7,1,0.7,1.7c0,0.7-0.3,1.4-0.8,1.9c-0.5,0.5-1.2,0.9-2.1,1v-5.7
		C-233,390.6-232.2,391-231.8,391.5"/>
</g>
</svg>
