<?xml version="1.0" encoding="utf-8"?>
<!-- Generator: Adobe Illustrator 18.1.1, SVG Export Plug-In . SVG Version: 6.00 Build 0)  -->
<svg version="1.1" id="Layer_1" xmlns:sketch="http://www.bohemiancoding.com/sketch/ns"
	 xmlns="http://www.w3.org/2000/svg" xmlns:xlink="http://www.w3.org/1999/xlink" x="0px" y="0px" viewBox="-259 363 92 67"
	 enable-background="new -259 363 92 67" xml:space="preserve">
<title>Shape-3</title>
<desc>Created with Sketch.</desc>
<g id="Page-1" sketch:type="MSPage">
	<path id="Shape-3" sketch:type="MSShapeGroup" fill="#FFFFFF" d="M-171.8,422.7c-20.3-12.8-37.9-1.1-37.9,0.9v-42.7
		c0-7.6,10.1-11.7,22.5-11.7c6,0,11.4,1.4,15.4,3.7V422.7L-171.8,422.7z M-215.9,423.6c0-2-17.6-13.8-38-0.9v-49.8
		c4-2.3,9.4-3.7,15.4-3.7c12.5,0,22.5,4.1,22.5,11.7V423.6L-215.9,423.6z M-212.6,371.4c-3.2-3-21.3-13.5-46-2.8v7.6v51h37.5
		c1.3,1.1,4.4,1.9,7.9,1.9c3.6,0,6.6-0.8,7.9-1.9h37.7v-51v-7.6C-191.2,358.1-210.2,369.2-212.6,371.4L-212.6,371.4L-212.6,371.4z"
		/>
</g>
</svg>
