<?xml version="1.0" encoding="utf-8"?>
<!-- Generator: Adobe Illustrator 18.1.1, SVG Export Plug-In . SVG Version: 6.00 Build 0)  -->
<svg version="1.1" id="Layer_1" xmlns:sketch="http://www.bohemiancoding.com/sketch/ns"
	 xmlns="http://www.w3.org/2000/svg" xmlns:xlink="http://www.w3.org/1999/xlink" x="0px" y="0px" viewBox="-268 357 75 79"
	 enable-background="new -268 357 75 79" xml:space="preserve">
<title>Shape-5</title>
<desc>Created with Sketch.</desc>
<g id="Page-1" sketch:type="MSPage">
	<path id="Shape-5" sketch:type="MSShapeGroup" fill="#FFFFFF" d="M-195.6,398v-9.2c0-5.8-5.3-10.9-12.3-10.9h-16.4l-0.1-5.1
		c0-1.5-1.2-2.7-2.7-2.7h-6.4v-3.3c0.6-0.3,1-0.7,1.4-1.2h13.7c0.9,1.2,2.3,2,3.9,2c2.7,0,4.9-2.2,4.9-4.9c0-2.7-2.2-4.9-4.9-4.9
		c-1.6,0-3,0.9-3.9,2.1H-232c-0.9-1.2-2.3-2.1-3.9-2.1c-1.6,0-3,0.9-3.9,2.1h-15c-0.9-1.2-2.3-2.1-3.9-2.1c-2.7,0-4.9,2.2-4.9,4.9
		c0,2.7,2.2,4.9,4.9,4.9c1.6,0,2.9-0.8,3.8-2h15.1c0.4,0.5,0.9,0.9,1.4,1.2v3.3h-6.8c-1.5,0-2.7,1.2-2.7,2.7v5.1h-19.9v16h22.2
		c2.2,4.4,5.1,6.5,9.4,6.5c4.4,0,8-2.2,10.2-6.5h8c2.4,0,3.3,1.5,3.5,4.5c-0.7,0.5-1.2,1.2-1.2,2.2c0,1.5,1.2,2.7,2.7,2.7h16.6
		c1.5,0,2.7-1.2,2.7-2.7C-193.8,399.3-194.5,398.3-195.6,398 M-205,406.1c1.5,2.9,8,18.1,8,20.3c0,11.9-16,11.9-16,0
		C-213,424.2-206.4,408.3-205,406.1"/>
</g>
</svg>
