<?xml version="1.0" encoding="utf-8"?>
<!-- Generator: Adobe Illustrator 18.1.1, SVG Export Plug-In . SVG Version: 6.00 Build 0)  -->
<svg version="1.1" id="Layer_1" xmlns:sketch="http://www.bohemiancoding.com/sketch/ns"
	 xmlns="http://www.w3.org/2000/svg" xmlns:xlink="http://www.w3.org/1999/xlink" x="0px" y="0px" viewBox="-265 356 80 81"
	 enable-background="new -265 356 80 81" xml:space="preserve">
<title>Shape-1</title>
<desc>Created with Sketch.</desc>
<g id="Page-1" sketch:type="MSPage">
	<path id="Shape-1" sketch:type="MSShapeGroup" fill="#FFFFFF" d="M-225,386.7c-5.4,0-9.8,4.4-9.8,9.8c0,5.4,4.4,9.8,9.8,9.8
		s9.8-4.4,9.8-9.8C-215.2,391.1-219.6,386.7-225,386.7L-225,386.7L-225,386.7z M-257.6,386.4h22.4l0-22.5l-6.7,6.7l-14.2-14.2l-9,9
		l14.2,14.1L-257.6,386.4L-257.6,386.4z M-185,365.5l-9-9l-14.2,14.2l-6.7-6.7v22.4l22.5,0l-6.7-6.7L-185,365.5L-185,365.5z
		 M-194,436.5l9-9l-14.2-14.2l6.7-6.7h-22.4l0,22.4l6.7-6.7L-194,436.5L-194,436.5z M-250.8,413.4l-6.7-6.7h22.5v22.4l-6.7-6.7
		l-14.2,14.2l-9-9L-250.8,413.4L-250.8,413.4z"/>
</g>
</svg>
