<?xml version="1.0" encoding="utf-8"?>
<!-- Generator: Adobe Illustrator 18.1.1, SVG Export Plug-In . SVG Version: 6.00 Build 0)  -->
<svg version="1.1" id="Layer_1" xmlns:sketch="http://www.bohemiancoding.com/sketch/ns"
	 xmlns="http://www.w3.org/2000/svg" xmlns:xlink="http://www.w3.org/1999/xlink" x="0px" y="0px" viewBox="-268 363 74 68"
	 enable-background="new -268 363 74 68" xml:space="preserve">
<title>Shape-6</title>
<desc>Created with Sketch.</desc>
<g id="Page-1" sketch:type="MSPage">
	<path id="Shape-6" sketch:type="MSShapeGroup" fill="#FFFFFF" d="M-231,395.2c4.4,0,8.2-1.6,11.4-4.7c3.1-3.2,4.7-6.9,4.7-11.4
		c0-4.4-1.6-8.2-4.7-11.4c-3.2-3.2-6.9-4.7-11.4-4.7c-4.4,0-8.3,1.5-11.4,4.7c-3.2,3.2-4.7,7-4.7,11.4c0,4.5,1.6,8.2,4.7,11.4
		C-239.3,393.6-235.4,395.2-231,395.2 M-206.2,388.7l-17,17.5v23.7h0.1v0.1h14v-10.2l14.2-18.8c0.6-0.7,0.9-1.6,0.9-2.5v-28.9
		c0-2.3-1.8-4.1-4.1-4.1c-2.3,0-4.1,1.8-4.1,4.1v16.7c1,0.2,1.9,0.6,2.7,1.4c2.2,2.1,2.2,5.6,0.1,7.8l-7.8,8l-1.1-1l7.8-8
		c1.6-1.6,1.5-4.2-0.1-5.7c-0.5-0.5-1.1-0.8-1.7-1c-0.7-0.2-1.4-0.2-2-0.1C-205,387.8-205.7,388.2-206.2,388.7 M-255.8,388.7
		l17,17.5v23.7h-0.1v0.1h-13.9v-10.2l-14.2-18.8c-0.6-0.7-0.9-1.6-0.9-2.5v-28.9c0-2.3,1.8-4.1,4.1-4.1c2.3,0,4.1,1.8,4.1,4.1v16.7
		c-1,0.2-1.9,0.6-2.7,1.4c-2.2,2.1-2.2,5.6-0.1,7.8l7.8,8l1.1-1l-7.8-8c-1.6-1.6-1.5-4.2,0.1-5.7c0.5-0.5,1.1-0.8,1.7-1
		c0.7-0.2,1.4-0.2,2-0.1C-257,387.8-256.3,388.2-255.8,388.7"/>
</g>
</svg>
